<svg width="100%" height="100%" id="svg" viewBox="0 0 1440 700" xmlns="http://www.w3.org/2000/svg" class="transition duration-300 ease-in-out delay-150"><defs><linearGradient id="gradient" x1="50%" y1="100%" x2="50%" y2="0%"><stop offset="5%" stop-color="#281ac844"></stop><stop offset="95%" stop-color="#fd749b44"></stop></linearGradient></defs><path d="M 0,700 C 0,700 0,140 0,140 C 72.16071428571428,116.03718703976436 144.32142857142856,92.07437407952872 205,97 C 265.67857142857144,101.92562592047128 314.87499999999994,135.73969072164948 362,140 C 409.12500000000006,144.26030927835052 454.17857142857144,118.96686303387334 515,105 C 575.8214285714286,91.03313696612666 652.4107142857142,88.39285714285714 713,109 C 773.5892857142858,129.60714285714286 818.1785714285716,173.4617083946981 887,174 C 955.8214285714284,174.5382916053019 1048.875,131.76030927835052 1108,125 C 1167.125,118.23969072164947 1192.321428571429,147.49705449189983 1242,156 C 1291.678571428571,164.50294550810017 1365.8392857142856,152.2514727540501 1440,140 C 1440,140 1440,700 1440,700 Z" stroke="none" stroke-width="0" fill="url(#gradient)" class="transition-all duration-300 ease-in-out delay-150 path-0"></path><defs><linearGradient id="gradient" x1="50%" y1="100%" x2="50%" y2="0%"><stop offset="5%" stop-color="#281ac866"></stop><stop offset="95%" stop-color="#fd749b66"></stop></linearGradient></defs><path d="M 0,700 C 0,700 0,280 0,280 C 74.2744845360825,274.1949558173785 148.548969072165,268.38991163475697 212,265 C 275.451030927835,261.61008836524303 328.07860824742266,260.6353092783505 385,254 C 441.92139175257734,247.3646907216495 503.1365979381444,235.06885125184098 563,236 C 622.8634020618556,236.93114874815902 681.375,251.08928571428567 737,261 C 792.625,270.91071428571433 845.3634020618555,276.57400589101616 909,268 C 972.6365979381445,259.42599410898384 1047.1713917525774,236.61469072164948 1098,241 C 1148.8286082474226,245.38530927835052 1175.951030927835,276.96723122238586 1229,288 C 1282.048969072165,299.03276877761414 1361.0244845360826,289.51638438880707 1440,280 C 1440,280 1440,700 1440,700 Z" stroke="none" stroke-width="0" fill="url(#gradient)" class="transition-all duration-300 ease-in-out delay-150 path-1"></path><defs><linearGradient id="gradient" x1="50%" y1="100%" x2="50%" y2="0%"><stop offset="5%" stop-color="#281ac888"></stop><stop offset="95%" stop-color="#fd749b88"></stop></linearGradient></defs><path d="M 0,700 C 0,700 0,420 0,420 C 75.67838733431518,404.7361929307806 151.35677466863035,389.4723858615611 203,400 C 254.64322533136965,410.5276141384389 282.2512886597938,446.84664948453604 330,445 C 377.7487113402062,443.15335051546396 445.63807069219445,403.1410162002946 520,399 C 594.3619293078056,394.8589837997054 675.1964285714286,426.5892857142858 734,426 C 792.8035714285714,425.4107142857142 829.5762150220912,392.5018409425626 893,392 C 956.4237849779088,391.4981590574374 1046.4987113402062,423.4033505154639 1106,420 C 1165.5012886597938,416.5966494845361 1194.428939617084,377.88475699558177 1245,372 C 1295.571060382916,366.11524300441823 1367.7855301914578,393.05762150220914 1440,420 C 1440,420 1440,700 1440,700 Z" stroke="none" stroke-width="0" fill="url(#gradient)" class="transition-all duration-300 ease-in-out delay-150 path-2"></path><defs><linearGradient id="gradient" x1="50%" y1="100%" x2="50%" y2="0%"><stop offset="5%" stop-color="#281ac8ff"></stop><stop offset="95%" stop-color="#fd749bff"></stop></linearGradient></defs><path d="M 0,700 C 0,700 0,560 0,560 C 42.45821060382916,571.1734167893962 84.91642120765832,582.3468335787924 148,578 C 211.08357879234168,573.6531664212076 294.7925257731959,553.7860824742268 356,547 C 417.2074742268041,540.2139175257732 455.91347569955815,546.5088365243005 513,548 C 570.0865243004419,549.4911634756995 645.5535714285714,546.1785714285714 704,555 C 762.4464285714286,563.8214285714286 803.872238586156,584.7768777614137 867,592 C 930.127761413844,599.2231222385863 1014.9574742268039,592.7139175257732 1078,585 C 1141.042525773196,577.2860824742268 1182.2978645066275,568.3674521354934 1239,564 C 1295.7021354933725,559.6325478645066 1367.851067746686,559.8162739322534 1440,560 C 1440,560 1440,700 1440,700 Z" stroke="none" stroke-width="0" fill="url(#gradient)" class="transition-all duration-300 ease-in-out delay-150 path-3"></path></svg>