<svg width="100%" height="100%" id="svg" viewBox="0 0 1440 400" xmlns="http://www.w3.org/2000/svg" class="transition duration-300 ease-in-out delay-150"><path d="M 0,400 C 0,400 0,80 0,80 C 88.34615384615387,93.45384615384614 176.69230769230774,106.9076923076923 262,100 C 347.30769230769226,93.0923076923077 429.576923076923,65.82307692307691 505,63 C 580.423076923077,60.17692307692308 649,81.8 737,87 C 825,92.2 932.4230769230769,80.97692307692307 1001,74 C 1069.576923076923,67.02307692307693 1099.3076923076922,64.29230769230769 1166,66 C 1232.6923076923078,67.70769230769231 1336.3461538461538,73.85384615384615 1440,80 C 1440,80 1440,400 1440,400 Z" stroke="none" stroke-width="0" fill="#281ac844" class="transition-all duration-300 ease-in-out delay-150 path-0" transform="rotate(-180 720 200)"></path><path d="M 0,400 C 0,400 0,160 0,160 C 90.38717948717951,169.83333333333334 180.77435897435902,179.66666666666669 265,171 C 349.225641025641,162.33333333333331 427.2897435897436,135.16666666666666 493,133 C 558.7102564102564,130.83333333333334 612.0666666666666,153.66666666666669 700,169 C 787.9333333333334,184.33333333333331 910.4435897435899,192.16666666666669 992,183 C 1073.5564102564101,173.83333333333331 1114.1589743589743,147.66666666666666 1182,141 C 1249.8410256410257,134.33333333333334 1344.9205128205128,147.16666666666669 1440,160 C 1440,160 1440,400 1440,400 Z" stroke="none" stroke-width="0" fill="#281ac866" class="transition-all duration-300 ease-in-out delay-150 path-1" transform="rotate(-180 720 200)"></path><path d="M 0,400 C 0,400 0,240 0,240 C 77.75384615384615,227.44358974358974 155.5076923076923,214.88717948717948 244,212 C 332.4923076923077,209.11282051282052 431.72307692307686,215.89487179487182 516,223 C 600.2769230769231,230.10512820512818 669.6000000000001,237.53333333333336 747,247 C 824.3999999999999,256.46666666666664 909.876923076923,267.9717948717949 986,264 C 1062.123076923077,260.0282051282051 1128.8923076923077,240.5794871794872 1203,234 C 1277.1076923076923,227.4205128205128 1358.5538461538463,233.71025641025642 1440,240 C 1440,240 1440,400 1440,400 Z" stroke="none" stroke-width="0" fill="#281ac888" class="transition-all duration-300 ease-in-out delay-150 path-2" transform="rotate(-180 720 200)"></path><path d="M 0,400 C 0,400 0,320 0,320 C 74.98974358974357,320.6461538461539 149.97948717948714,321.2923076923077 225,328 C 300.02051282051286,334.7076923076923 375.07179487179496,347.4769230769231 467,339 C 558.928205128205,330.5230769230769 667.7333333333332,300.8 751,300 C 834.2666666666668,299.2 891.9948717948716,327.3230769230769 967,336 C 1042.0051282051284,344.6769230769231 1134.2871794871796,333.90769230769234 1216,328 C 1297.7128205128204,322.09230769230766 1368.85641025641,321.04615384615386 1440,320 C 1440,320 1440,400 1440,400 Z" stroke="none" stroke-width="0" fill="#281ac8ff" class="transition-all duration-300 ease-in-out delay-150 path-3" transform="rotate(-180 720 200)"></path></svg>